<?xml version="1.0" standalone="no"?>
<!DOCTYPE svg PUBLIC "-//W3C//DTD SVG 20010904//EN"
 "http://www.w3.org/TR/2001/REC-SVG-20010904/DTD/svg10.dtd">
<svg version="1.0" xmlns="http://www.w3.org/2000/svg"
 width="260.000000pt" height="260.000000pt" viewBox="0 0 260.000000 260.000000"
 preserveAspectRatio="xMidYMid meet">
<metadata>
Created by potrace 1.11, written by Peter Selinger 2001-2013
</metadata>
<g transform="translate(0.000000,260.000000) scale(0.100000,-0.100000)"
fill="#000000" stroke="none">
<path d="M2206 2313 c-3 -4 -14 -8 -24 -9 -29 -4 -63 -13 -116 -31 -28 -9 -54
-16 -58 -15 -5 1 -8 -2 -8 -6 0 -4 -10 -8 -22 -9 -11 -1 -25 -8 -29 -15 -4 -7
-11 -10 -14 -6 -13 13 -305 -153 -305 -174 0 -4 -7 -8 -17 -8 -9 0 -13 -3 -10
-7 4 -3 1 -13 -6 -21 -10 -13 -9 -14 3 -7 12 7 13 6 4 -6 -14 -18 -16 -150 -3
-166 7 -7 6 -14 -1 -18 -5 -3 -10 -1 -10 6 0 7 -3 10 -6 6 -3 -3 -15 3 -27 13
-11 11 -24 17 -29 14 -4 -3 -8 -1 -8 4 0 5 -8 18 -18 30 -13 14 -22 18 -33 11
-8 -5 -10 -9 -6 -9 4 0 -1 -9 -11 -20 -11 -12 -28 -38 -38 -58 -11 -20 -23
-40 -27 -43 -5 -3 -8 -9 -8 -13 4 -25 0 -46 -8 -42 -5 3 -7 -8 -6 -24 1 -17
-2 -30 -9 -30 -7 0 -7 -3 -1 -8 13 -9 18 -32 7 -32 -5 0 -9 -7 -9 -15 0 -8 5
-15 10 -15 5 0 4 -7 -4 -16 -10 -13 -10 -17 1 -24 8 -5 11 -12 7 -16 -4 -4 -2
-13 5 -21 6 -7 8 -16 4 -20 -3 -3 -6 -1 -6 6 0 7 -4 10 -9 7 -5 -4 -22 5 -38
18 -27 23 -48 23 -48 1 -1 -18 -29 -85 -36 -85 -5 0 -6 -9 -4 -20 2 -11 0 -20
-6 -20 -5 0 -9 -9 -9 -20 0 -11 -4 -20 -10 -20 -5 0 -9 -3 -8 -7 1 -5 -4 -24
-11 -43 -8 -19 -13 -38 -12 -42 0 -5 -4 -8 -11 -8 -6 0 -8 -3 -5 -7 4 -3 1
-13 -5 -21 -7 -8 -13 -21 -15 -30 -1 -9 -7 -18 -12 -20 -14 -5 -14 -33 -1 -29
6 1 39 30 75 63 35 34 66 59 69 56 3 -3 6 2 6 12 0 9 3 16 8 14 9 -5 61 49 54
56 -3 4 2 6 11 6 10 0 17 4 17 9 0 5 29 38 63 75 35 36 62 66 61 66 -3 0 24
31 107 120 26 27 49 57 53 65 3 9 11 13 16 10 6 -4 9 -3 8 2 -4 10 83 123 94
123 5 0 8 8 8 18 0 14 2 15 10 2 6 -10 4 -20 -6 -31 -7 -8 -14 -20 -14 -26 0
-6 -7 -16 -15 -23 -8 -7 -13 -16 -10 -20 3 -5 -2 -16 -11 -24 -8 -9 -13 -16
-10 -16 4 0 -5 -18 -19 -40 -14 -22 -25 -44 -25 -50 0 -5 -4 -10 -10 -10 -5 0
-10 -5 -10 -11 0 -14 -109 -183 -121 -187 -5 -2 -9 -10 -9 -17 0 -8 -13 -28
-30 -45 -17 -17 -30 -35 -30 -40 0 -5 -11 -21 -25 -35 -14 -14 -23 -25 -20
-25 5 0 -37 -49 -87 -101 -9 -10 -14 -20 -11 -22 2 -3 -5 -8 -16 -12 -12 -3
-19 -10 -16 -15 3 -4 -2 -10 -10 -14 -21 -8 -19 -36 3 -36 10 0 27 7 38 15 10
8 27 15 36 15 9 0 18 5 20 11 2 5 10 11 18 12 19 3 114 59 118 69 2 4 8 8 13
8 15 0 74 44 76 57 2 7 -6 10 -18 8 -24 -5 -53 6 -56 20 -1 6 13 10 31 9 40
-2 126 16 144 31 41 32 152 143 152 151 0 5 -24 9 -54 9 -42 0 -57 4 -66 19
-7 11 -8 16 -1 11 6 -3 11 -2 11 2 0 5 23 7 50 6 28 -2 50 1 50 5 0 8 14 12
53 13 9 0 15 4 12 9 -3 5 4 11 15 15 11 3 20 12 20 19 0 7 11 25 25 40 13 14
22 26 20 26 -3 0 9 26 25 59 17 32 30 66 30 75 0 9 5 16 10 16 6 0 10 9 10 20
0 11 4 28 9 38 11 20 19 45 17 53 0 4 8 16 18 28 22 24 22 24 -61 25 -35 1
-63 4 -63 9 0 4 2 6 5 5 2 -2 11 6 20 17 9 11 13 13 9 5 -5 -8 7 -3 25 13 18
15 37 27 42 27 5 0 8 6 6 13 -1 6 4 11 11 10 6 -2 12 4 12 13 0 8 5 12 10 9 6
-3 10 1 10 9 0 9 5 16 10 16 6 0 10 6 10 14 0 8 3 16 8 18 11 5 52 84 52 102
0 9 4 16 8 16 5 0 9 6 10 13 1 6 4 24 8 40 5 22 3 27 -13 27 -11 0 -23 -3 -27
-7z"/>
<path d="M1628 1628 c-21 -23 -38 -44 -38 -47 0 -3 -22 -30 -49 -58 -26 -29
-46 -53 -43 -53 2 0 -12 -16 -32 -36 -20 -20 -36 -40 -36 -45 0 -5 -7 -9 -15
-9 -8 0 -14 -4 -12 -8 2 -9 -23 -37 -152 -167 -51 -52 -98 -95 -103 -95 -5 0
-6 -4 -3 -10 3 -5 2 -10 -2 -10 -5 0 -25 -14 -45 -31 -24 -21 -48 -32 -72 -34
-21 -1 -33 2 -29 8 4 6 1 7 -8 2 -7 -5 -29 -8 -49 -8 -43 2 -90 -15 -90 -32 0
-8 -2 -20 -5 -27 -7 -18 28 -60 46 -56 10 2 14 -9 14 -37 0 -33 -3 -40 -20
-40 -11 0 -26 -5 -33 -12 -8 -7 -18 -11 -23 -8 -5 4 -9 1 -9 -6 0 -7 -3 -9 -7
-6 -3 4 -17 -6 -31 -21 -14 -15 -27 -26 -29 -25 -1 2 -14 -9 -27 -22 -14 -14
-22 -25 -19 -25 3 0 -1 -8 -10 -18 -10 -10 -14 -22 -10 -25 3 -4 2 -7 -3 -7
-6 0 -11 -38 -13 -85 -2 -65 1 -85 11 -85 10 0 10 -2 -1 -9 -9 -6 -10 -11 -3
-15 6 -4 9 -13 6 -21 -6 -15 46 -119 54 -110 3 3 13 -2 22 -10 10 -9 28 -18
41 -20 54 -10 107 -16 149 -19 25 -1 51 -5 58 -10 6 -4 12 -3 12 2 0 10 30 9
48 -2 6 -4 12 -4 12 1 0 4 38 8 85 8 47 0 85 3 85 6 0 3 15 6 33 7 47 2 77 10
93 23 8 6 14 8 14 5 0 -8 59 55 61 64 0 3 3 14 5 25 3 11 6 32 6 48 1 15 4 27
8 27 4 0 6 31 6 70 0 38 -4 70 -7 70 -4 0 -6 8 -4 18 4 28 -87 142 -114 142
-6 0 -11 4 -11 8 0 7 -63 35 -82 37 -24 1 -34 50 -14 70 7 8 16 12 19 8 3 -3
15 9 25 26 16 26 17 37 8 57 -6 13 -20 25 -31 25 -11 1 -31 3 -45 4 -14 2 -31
3 -39 4 -8 0 17 31 55 69 89 87 170 180 166 192 -1 6 4 10 10 10 7 0 26 20 41
45 16 25 33 45 38 45 5 0 9 7 9 15 0 8 4 15 10 15 5 0 12 11 16 25 3 14 10 23
14 20 5 -3 14 8 22 25 7 16 16 30 20 30 5 0 8 7 8 15 0 8 3 15 8 15 4 0 16 17
27 37 11 20 26 43 33 50 8 7 12 17 10 22 -2 5 -20 -9 -40 -31z m-757 -890 c4
-6 -2 -20 -13 -32 -43 -46 -69 -104 -73 -163 -1 -32 1 -63 5 -68 6 -7 2 -11
-10 -12 -16 -1 -26 16 -31 54 -1 5 -5 18 -10 31 -5 13 -5 22 1 22 6 0 6 9 0
24 -6 16 -5 26 1 28 6 2 11 10 13 18 10 64 95 134 117 98z"/>
</g>
</svg>
